<svg version="1.1" id="Layer_1" xmlns="http://www.w3.org/2000/svg" xmlns:xlink="http://www.w3.org/1999/xlink" x="0px" y="0px"
	 width="100%" viewBox="0 0 208 176" enable-background="new 0 0 208 176" xml:space="preserve">
<path fill="#071145" opacity="1.000000" stroke="none" 
	d="
M160.988708,119.305130 
	C134.493469,119.298889 108.496658,119.268478 82.500023,119.320877 
	C79.290703,119.327347 76.868767,118.950432 76.980751,114.871437 
	C77.059196,112.013702 78.051514,110.643509 81.121773,110.649673 
	C110.784531,110.709198 140.447479,110.702995 170.110275,110.657997 
	C173.050842,110.653542 174.302933,111.797523 174.349030,114.786491 
	C174.397644,117.937340 173.246811,119.436104 169.984787,119.298126 
	C167.157425,119.178528 164.320099,119.294418 160.988708,119.305130 
z"/>
<path fill="#071145" opacity="1.000000" stroke="none" 
	d="
M71.892166,149.334167 
	C67.692924,149.829865 66.708755,148.092468 66.575577,144.491898 
	C65.856956,125.062500 66.770439,105.638878 66.533478,86.214455 
	C66.495102,83.068977 66.538643,80.491325 71.162422,80.512108 
	C75.835670,80.533112 76.189163,82.853645 76.172089,86.445084 
	C76.081200,105.555389 76.123421,124.666298 76.083229,143.776917 
	C76.077728,146.390213 76.526299,149.445969 71.892166,149.334167 
z"/>
<path fill="#071145" opacity="1.000000" stroke="none" 
	d="
M184.386200,148.404877 
	C176.057724,150.290436 175.660553,149.995087 175.656174,142.211243 
	C175.645691,123.593796 175.668961,104.976311 175.637039,86.358917 
	C175.631638,83.212708 175.409470,80.542107 180.099075,80.532242 
	C184.566254,80.522842 185.313507,82.516167 185.290756,86.277428 
	C185.174179,105.559174 185.221390,124.841888 185.173691,144.124176 
	C185.170456,145.433151 184.858215,146.741394 184.386200,148.404877 
z"/>
<path fill="#071145" opacity="1.000000" stroke="none" 
	d="
M195.632233,140.494476 
	C189.090607,144.348953 185.998444,142.773026 185.980148,135.998657 
	C185.941452,121.677963 185.994781,107.356964 185.930328,93.036446 
	C185.914124,89.435471 186.555176,86.992950 191.058762,86.948135 
	C195.768997,86.901260 196.054672,89.674774 196.032288,93.117012 
	C195.930466,108.764420 195.858292,124.412010 195.632233,140.494476 
z"/>
<path fill="#071145" opacity="1.000000" stroke="none" 
	d="
M55.594238,101.008423 
	C55.614948,97.517174 55.797092,94.514137 55.617229,91.532951 
	C55.397953,87.898338 57.230816,86.967049 60.456676,86.990532 
	C63.666878,87.013885 65.403725,88.003220 65.380196,91.576096 
	C65.278320,107.042046 65.254807,122.509300 65.351097,137.975159 
	C65.373756,141.615158 63.649662,142.416794 60.432579,142.429810 
	C57.159687,142.443039 55.584732,141.537064 55.620461,137.927261 
	C55.740608,125.788216 55.622288,113.646828 55.594238,101.008423 
z"/>
<path fill="#071145" opacity="1.000000" stroke="none" 
	d="
M51.862183,135.254150 
	C44.726250,135.323288 44.706039,135.323318 44.696072,128.835037 
	C44.680725,118.845718 44.814857,108.854248 44.638069,98.868080 
	C44.571167,95.088837 46.153698,93.902016 49.681736,93.932938 
	C53.021587,93.962204 54.456680,95.173264 54.410141,98.659119 
	C54.267895,109.312805 54.377640,119.969650 54.313648,130.624817 
	C54.303299,132.348129 54.771248,134.449646 51.862183,135.254150 
z"/>
<path fill="#071145" opacity="1.000000" stroke="none" 
	d="
M196.818314,111.002213 
	C196.820984,106.504501 196.962051,102.500252 196.786957,98.509872 
	C196.626205,94.846230 198.556931,93.951065 201.721268,93.970879 
	C204.665298,93.989311 206.406326,94.785225 206.369568,98.222420 
	C206.251968,109.216217 206.253296,120.212997 206.379272,131.206680 
	C206.418289,134.611801 204.841187,135.402161 201.797623,135.423080 
	C198.578491,135.445206 196.742279,134.634979 196.811203,130.992203 
	C196.934082,124.497650 196.828751,117.998772 196.818314,111.002213 
z"/>
<path fill="#071145" opacity="1.000000" stroke="none" 
	d="
M39.084969,119.111526 
	C35.794716,117.318497 36.787838,114.687416 37.309639,112.371017 
	C37.730480,110.502800 39.580925,110.774956 41.066162,110.777908 
	C42.689072,110.781143 43.524792,111.732742 43.658539,113.237549 
	C43.846741,115.354965 44.387093,117.685539 41.963207,118.971176 
	C41.294891,119.325653 40.334507,119.129486 39.084969,119.111526 
z"/>
</svg>